<?xml version="1.0" encoding="UTF-8"?>
<!-- Created with Inkscape (http://www.inkscape.org/) -->
<svg version="1.1" viewBox="0 0 48 8.96" xmlns="http://www.w3.org/2000/svg"><title>Pagegen</title><g transform="translate(5.7615 7.8165)"><path d="m-1.2815 1.1435h-2.56v-3.52h3.52v-5.44h1.6v1.92h3.52v1.6h-3.52v5.44zm8.8 0h-0.8v-8.96h1.6v5.44h3.84v1.6h-3.84v1.92zm7.2 0h-0.96v-8.96h1.92v8.96zm7.04 0h-0.96v-1.92h-3.52v-1.6h3.52v-5.44h1.92v5.44h3.52v1.6h-3.52v1.92zm7.2 0h-0.8v-8.96h1.6v8.96zm7.04 0h-0.8v-1.92h-3.52v-1.6h3.52v-5.44h1.6v8.96zm3.52 0h-0.8v-5.44h1.6v5.44zm-35.52-1.92h-0.8v-1.6h1.6v1.6zm-7.04-3.52h-0.8v-1.6h1.6v1.6zm14.24 0h-0.96v-1.6h1.92v1.6zm7.04 0h-0.96v-1.6h1.92v1.6zm7.04 0h-0.96v-1.6h1.92v1.6zm7.2 0h-0.8v-1.6h1.6v1.6zm8.8-1.6h-0.96v-1.92h1.92v1.92z" fill="currentColor" stroke="transparent"/><path d="m-4.8015 1.1435h-0.96v-8.96h5.44v5.44h-3.52v3.52zm1.76-5.44h0.8v-1.6h-1.6v1.6zm7.04 5.44h-2.72v-5.44h3.52v-1.6h-3.52v-1.92h5.44v8.96zm0-1.92h0.8v-1.6h-1.6v1.6zm7.04 1.92h-2.72v-1.92h3.84v-1.6h-3.84v-5.44h5.44v8.96zm0.16-5.44h0.96v-1.6h-1.92v1.6zm7.04 5.44h-2.56v-8.96h5.12v5.44h-3.52v1.6h3.52v1.92zm0-5.44h0.96v-1.6h-1.92v1.6zm7.2 5.44h-2.72v-1.92h3.52v-1.6h-3.52v-5.44h5.44v8.96zm-0.16-5.44h0.96v-1.6h-1.92v1.6zm7.2 5.44h-2.72v-8.96h5.44v5.44h-3.52v1.6h3.52v1.92zm0-5.44h0.8v-1.6h-1.6v1.6zm5.28 5.44h-0.96v-8.96h3.52v1.92h1.92v7.04h-1.92v-5.44h-1.6v5.44z" fill="currentColor" stroke="transparent"/></g></svg>
